<svg style="background-color: #F5F5F5" viewBox="0 0 1000 1000" xmlns="http://www.w3.org/2000/svg">
<path d="M810,810 L-10,810 L260.9317,794.75134 z" fill="#29B6F6" stroke="white"/>
<path d="M260.9317,794.75134 L705.77295,785.9173 L810,810 z" fill="#29B6F6" stroke="white"/>
<path d="M705.77295,785.9173 L260.9317,794.75134 L446.96518,736.47406 z" fill="#29B6F6" stroke="white"/>
<path d="M705.77295,785.9173 L446.96518,736.47406 L522.401,694.4459 z" fill="#29B6F6" stroke="white"/>
<path d="M705.77295,785.9173 L522.401,694.4459 L650.2172,661.56586 z" fill="#29B6F6" stroke="white"/>
<path d="M740.86505,707.24054 L705.77295,785.9173 L650.2172,661.56586 z" fill="#29B6F6" stroke="white"/>
<path d="M705.77295,785.9173 L740.86505,707.24054 L810,810 z" fill="#29B6F6" stroke="white"/>
<path d="M740.86505,707.24054 L797.1635,626.759 L810,810 z" fill="#29B6F6" stroke="white"/>
<path d="M797.1635,626.759 L740.86505,707.24054 L727.87524,613.5628 z" fill="#29B6F6" stroke="white"/>
<path d="M772.24194,583.45416 L797.1635,626.759 L727.87524,613.5628 z" fill="#29B6F6" stroke="white"/>
<path d="M797.1635,626.759 L772.24194,583.45416 L786.4509,547.10547 z" fill="#29B6F6" stroke="white"/>
<path d="M797.1635,626.759 L786.4509,547.10547 L792.04895,352.1939 z" fill="#29B6F6" stroke="white"/>
<path d="M792.04895,352.1939 L810,810 L797.1635,626.759 z" fill="#29B6F6" stroke="white"/>
<path d="M810,810 L792.04895,352.1939 L810,-10 z" fill="#29B6F6" stroke="white"/>
<path d="M792.04895,352.1939 L791.3225,216.0569 L810,-10 z" fill="#29B6F6" stroke="white"/>
<path d="M792.04895,352.1939 L783.86334,279.68515 L791.3225,216.0569 z" fill="#29B6F6" stroke="white"/>
<path d="M792.04895,352.1939 L752.4186,341.22205 L783.86334,279.68515 z" fill="#29B6F6" stroke="white"/>
<path d="M792.04895,352.1939 L781.74384,365.8655 L752.4186,341.22205 z" fill="#29B6F6" stroke="white"/>
<path d="M774.6118,464.9475 L781.74384,365.8655 L792.04895,352.1939 z" fill="#29B6F6" stroke="white"/>
<path d="M774.6118,464.9475 L735.0271,452.04233 L781.74384,365.8655 z" fill="#29B6F6" stroke="white"/>
<path d="M774.6118,464.9475 L786.4509,547.10547 L735.0271,452.04233 z" fill="#29B6F6" stroke="white"/>
<path d="M786.4509,547.10547 L774.6118,464.9475 L792.04895,352.1939 z" fill="#29B6F6" stroke="white"/>
<path d="M735.0271,452.04233 L786.4509,547.10547 L715.8972,570.95325 z" fill="#29B6F6" stroke="white"/>
<path d="M735.0271,452.04233 L715.8972,570.95325 L665.1531,526.0387 z" fill="#29B6F6" stroke="white"/>
<path d="M600,400 L735.0271,452.04233 L665.1531,526.0387 z" fill="#29B6F6" stroke="white"/>
<path d="M738.8196,345.5234 L735.0271,452.04233 L600,400 z" fill="#29B6F6" stroke="white"/>
<path d="M738.8196,345.5234 L781.74384,365.8655 L735.0271,452.04233 z" fill="#29B6F6" stroke="white"/>
<path d="M738.8196,345.5234 L752.4186,341.22205 L781.74384,365.8655 z" fill="#29B6F6" stroke="white"/>
<path d="M783.86334,279.68515 L752.4186,341.22205 L738.8196,345.5234 z" fill="#29B6F6" stroke="white"/>
<path d="M783.86334,279.68515 L738.8196,345.5234 L643.6743,323.7484 z" fill="#29B6F6" stroke="white"/>
<path d="M783.86334,279.68515 L643.6743,323.7484 L623.8661,275.59146 z" fill="#29B6F6" stroke="white"/>
<path d="M783.86334,279.68515 L623.8661,275.59146 L763.7896,187.66792 z" fill="#29B6F6" stroke="white"/>
<path d="M791.3225,216.0569 L783.86334,279.68515 L763.7896,187.66792 z" fill="#29B6F6" stroke="white"/>
<path d="M791.3225,216.0569 L763.7896,187.66792 L797.8386,87.801704 z" fill="#29B6F6" stroke="white"/>
<path d="M797.8386,87.801704 L810,-10 L791.3225,216.0569 z" fill="#29B6F6" stroke="white"/>
<path d="M810,-10 L797.8386,87.801704 L590.2086,34.32787 z" fill="#29B6F6" stroke="white"/>
<path d="M810,-10 L590.2086,34.32787 L537.8498,7.6035714 z" fill="#29B6F6" stroke="white"/>
<path d="M810,-10 L537.8498,7.6035714 L-10,-10 z" fill="#29B6F6" stroke="white"/>
<path d="M537.8498,7.6035714 L157.152,6.716231 L-10,-10 z" fill="#29B6F6" stroke="white"/>
<path d="M480.88278,11.9157505 L157.152,6.716231 L537.8498,7.6035714 z" fill="#29B6F6" stroke="white"/>
<path d="M307.60672,76.17618 L157.152,6.716231 L480.88278,11.9157505 z" fill="#29B6F6" stroke="white"/>
<path d="M307.60672,76.17618 L151.16927,83.74925 L157.152,6.716231 z" fill="#29B6F6" stroke="white"/>
<path d="M149.04659,121.89393 L151.16927,83.74925 L307.60672,76.17618 z" fill="#29B6F6" stroke="white"/>
<path d="M149.04659,121.89393 L125.549,105.206604 L151.16927,83.74925 z" fill="#29B6F6" stroke="white"/>
<path d="M91.106094,223.00264 L125.549,105.206604 L149.04659,121.89393 z" fill="#29B6F6" stroke="white"/>
<path d="M30.229153,158.58142 L125.549,105.206604 L91.106094,223.00264 z" fill="#29B6F6" stroke="white"/>
<path d="M30.229153,158.58142 L111.29153,48.883266 L125.549,105.206604 z" fill="#29B6F6" stroke="white"/>
<path d="M30.229153,158.58142 L-10,-10 L111.29153,48.883266 z" fill="#29B6F6" stroke="white"/>
<path d="M30.229153,158.58142 L40.8914,291.22012 L-10,-10 z" fill="#29B6F6" stroke="white"/>
<path d="M46.995235,208.00229 L40.8914,291.22012 L30.229153,158.58142 z" fill="#29B6F6" stroke="white"/>
<path d="M91.106094,223.00264 L40.8914,291.22012 L46.995235,208.00229 z" fill="#29B6F6" stroke="white"/>
<path d="M93.94989,320.46948 L40.8914,291.22012 L91.106094,223.00264 z" fill="#29B6F6" stroke="white"/>
<path d="M57.522087,319.10425 L40.8914,291.22012 L93.94989,320.46948 z" fill="#29B6F6" stroke="white"/>
<path d="M40.8914,291.22012 L57.522087,319.10425 L75.89386,533.0702 z" fill="#29B6F6" stroke="white"/>
<path d="M40.8914,291.22012 L75.89386,533.0702 L-10,810 z" fill="#29B6F6" stroke="white"/>
<path d="M-10,810 L-10,-10 L40.8914,291.22012 z" fill="#29B6F6" stroke="white"/>
<path d="M103.45203,713.37616 L-10,810 L75.89386,533.0702 z" fill="#29B6F6" stroke="white"/>
<path d="M70.61357,764.2437 L-10,810 L103.45203,713.37616 z" fill="#29B6F6" stroke="white"/>
<path d="M70.61357,764.2437 L58.24145,780.5066 L-10,810 z" fill="#29B6F6" stroke="white"/>
<path d="M58.24145,780.5066 L70.61357,764.2437 L85.0409,794.64355 z" fill="#29B6F6" stroke="white"/>
<path d="M-10,810 L58.24145,780.5066 L85.0409,794.64355 z" fill="#29B6F6" stroke="white"/>
<path d="M-10,810 L85.0409,794.64355 L260.9317,794.75134 z" fill="#29B6F6" stroke="white"/>
<path d="M260.9317,794.75134 L85.0409,794.64355 L102.50815,789.8425 z" fill="#29B6F6" stroke="white"/>
<path d="M260.9317,794.75134 L102.50815,789.8425 L194.43138,776.052 z" fill="#29B6F6" stroke="white"/>
<path d="M260.9317,794.75134 L194.43138,776.052 L245.62502,771.85614 z" fill="#29B6F6" stroke="white"/>
<path d="M260.9317,794.75134 L245.62502,771.85614 L261.82056,748.2734 z" fill="#29B6F6" stroke="white"/>
<path d="M261.82056,748.2734 L352.1527,713.16235 L260.9317,794.75134 z" fill="#29B6F6" stroke="white"/>
<path d="M352.1527,713.16235 L261.82056,748.2734 L337.3118,695.5979 z" fill="#29B6F6" stroke="white"/>
<path d="M352.1527,713.16235 L337.3118,695.5979 L357.18503,684.33 z" fill="#29B6F6" stroke="white"/>
<path d="M421.3884,690.182 L352.1527,713.16235 L357.18503,684.33 z" fill="#29B6F6" stroke="white"/>
<path d="M446.96518,736.47406 L352.1527,713.16235 L421.3884,690.182 z" fill="#29B6F6" stroke="white"/>
<path d="M446.96518,736.47406 L260.9317,794.75134 L352.1527,713.16235 z" fill="#29B6F6" stroke="white"/>
<path d="M522.401,694.4459 L446.96518,736.47406 L421.3884,690.182 z" fill="#29B6F6" stroke="white"/>
<path d="M421.3884,690.182 L400,600 L522.401,694.4459 z" fill="#29B6F6" stroke="white"/>
<path d="M400,600 L421.3884,690.182 L352.50745,673.5921 z" fill="#29B6F6" stroke="white"/>
<path d="M400,600 L352.50745,673.5921 L349.49188,583.83014 z" fill="#29B6F6" stroke="white"/>
<path d="M370.48038,485.4724 L400,600 L349.49188,583.83014 z" fill="#29B6F6" stroke="white"/>
<path d="M370.48038,485.4724 L400,400 L400,600 z" fill="#29B6F6" stroke="white"/>
<path d="M400,400 L370.48038,485.4724 L295.90933,472.0447 z" fill="#29B6F6" stroke="white"/>
<path d="M295.90933,472.0447 L317.99826,355.9236 L400,400 z" fill="#29B6F6" stroke="white"/>
<path d="M317.99826,355.9236 L295.90933,472.0447 L208.11482,371.29752 z" fill="#29B6F6" stroke="white"/>
<path d="M208.11482,371.29752 L321.7143,348.73587 L317.99826,355.9236 z" fill="#29B6F6" stroke="white"/>
<path d="M208.11482,371.29752 L292.1166,239.62648 L321.7143,348.73587 z" fill="#29B6F6" stroke="white"/>
<path d="M292.1166,239.62648 L208.11482,371.29752 L91.106094,223.00264 z" fill="#29B6F6" stroke="white"/>
<path d="M292.1166,239.62648 L91.106094,223.00264 L149.04659,121.89393 z" fill="#29B6F6" stroke="white"/>
<path d="M307.60672,76.17618 L292.1166,239.62648 L149.04659,121.89393 z" fill="#29B6F6" stroke="white"/>
<path d="M320.4181,221.12846 L292.1166,239.62648 L307.60672,76.17618 z" fill="#29B6F6" stroke="white"/>
<path d="M320.4181,221.12846 L344.5804,248.48036 L292.1166,239.62648 z" fill="#29B6F6" stroke="white"/>
<path d="M320.4181,221.12846 L433.73004,161.55238 L344.5804,248.48036 z" fill="#29B6F6" stroke="white"/>
<path d="M401.27585,112.10536 L433.73004,161.55238 L320.4181,221.12846 z" fill="#29B6F6" stroke="white"/>
<path d="M433.73004,161.55238 L401.27585,112.10536 L463.1821,59.455173 z" fill="#29B6F6" stroke="white"/>
<path d="M549.00916,113.898445 L433.73004,161.55238 L463.1821,59.455173 z" fill="#29B6F6" stroke="white"/>
<path d="M433.73004,161.55238 L549.00916,113.898445 L435.53543,164.59326 z" fill="#29B6F6" stroke="white"/>
<path d="M344.5804,248.48036 L433.73004,161.55238 L435.53543,164.59326 z" fill="#29B6F6" stroke="white"/>
<path d="M344.5804,248.48036 L435.53543,164.59326 L367.99374,263.14233 z" fill="#29B6F6" stroke="white"/>
<path d="M367.99374,263.14233 L321.7143,348.73587 L344.5804,248.48036 z" fill="#29B6F6" stroke="white"/>
<path d="M400,400 L321.7143,348.73587 L367.99374,263.14233 z" fill="#29B6F6" stroke="white"/>
<path d="M321.7143,348.73587 L400,400 L317.99826,355.9236 z" fill="#29B6F6" stroke="white"/>
<path d="M367.99374,263.14233 L468.6961,294.32123 L400,400 z" fill="#29B6F6" stroke="white"/>
<path d="M493.53165,242.87592 L468.6961,294.32123 L367.99374,263.14233 z" fill="#29B6F6" stroke="white"/>
<path d="M493.53165,242.87592 L546.14825,315.0512 L468.6961,294.32123 z" fill="#29B6F6" stroke="white"/>
<path d="M493.53165,242.87592 L570.6282,202.39787 L546.14825,315.0512 z" fill="#29B6F6" stroke="white"/>
<path d="M570.6282,202.39787 L493.53165,242.87592 L554.2611,149.04787 z" fill="#29B6F6" stroke="white"/>
<path d="M570.6282,202.39787 L554.2611,149.04787 L580.8386,137.91518 z" fill="#29B6F6" stroke="white"/>
<path d="M635.75604,131.70152 L570.6282,202.39787 L580.8386,137.91518 z" fill="#29B6F6" stroke="white"/>
<path d="M570.6282,202.39787 L635.75604,131.70152 L623.8661,275.59146 z" fill="#29B6F6" stroke="white"/>
<path d="M570.6282,202.39787 L623.8661,275.59146 L546.14825,315.0512 z" fill="#29B6F6" stroke="white"/>
<path d="M623.8661,275.59146 L643.6743,323.7484 L546.14825,315.0512 z" fill="#29B6F6" stroke="white"/>
<path d="M546.14825,315.0512 L643.6743,323.7484 L600,400 z" fill="#29B6F6" stroke="white"/>
<path d="M510.59692,391.6304 L546.14825,315.0512 L600,400 z" fill="#29B6F6" stroke="white"/>
<path d="M510.59692,391.6304 L468.6961,294.32123 L546.14825,315.0512 z" fill="#29B6F6" stroke="white"/>
<path d="M400,400 L468.6961,294.32123 L510.59692,391.6304 z" fill="#29B6F6" stroke="white"/>
<path d="M400,400 L510.59692,391.6304 L600,400 z" fill="#29B6F6" stroke="white"/>
<path d="M600,400 L643.6743,323.7484 L738.8196,345.5234 z" fill="#29B6F6" stroke="white"/>
<path d="M718.513,147.91304 L623.8661,275.59146 L635.75604,131.70152 z" fill="#29B6F6" stroke="white"/>
<path d="M763.7896,187.66792 L623.8661,275.59146 L718.513,147.91304 z" fill="#29B6F6" stroke="white"/>
<path d="M763.7896,187.66792 L718.513,147.91304 L797.8386,87.801704 z" fill="#29B6F6" stroke="white"/>
<path d="M797.8386,87.801704 L718.513,147.91304 L590.2086,34.32787 z" fill="#29B6F6" stroke="white"/>
<path d="M590.2086,34.32787 L718.513,147.91304 L635.75604,131.70152 z" fill="#29B6F6" stroke="white"/>
<path d="M580.8386,137.91518 L590.2086,34.32787 L635.75604,131.70152 z" fill="#29B6F6" stroke="white"/>
<path d="M549.00916,113.898445 L590.2086,34.32787 L580.8386,137.91518 z" fill="#29B6F6" stroke="white"/>
<path d="M537.8498,7.6035714 L590.2086,34.32787 L549.00916,113.898445 z" fill="#29B6F6" stroke="white"/>
<path d="M463.1821,59.455173 L537.8498,7.6035714 L549.00916,113.898445 z" fill="#29B6F6" stroke="white"/>
<path d="M537.8498,7.6035714 L463.1821,59.455173 L480.88278,11.9157505 z" fill="#29B6F6" stroke="white"/>
<path d="M480.88278,11.9157505 L463.1821,59.455173 L384.53134,75.86627 z" fill="#29B6F6" stroke="white"/>
<path d="M480.88278,11.9157505 L384.53134,75.86627 L307.60672,76.17618 z" fill="#29B6F6" stroke="white"/>
<path d="M307.60672,76.17618 L384.53134,75.86627 L401.27585,112.10536 z" fill="#29B6F6" stroke="white"/>
<path d="M307.60672,76.17618 L401.27585,112.10536 L320.4181,221.12846 z" fill="#29B6F6" stroke="white"/>
<path d="M463.1821,59.455173 L401.27585,112.10536 L384.53134,75.86627 z" fill="#29B6F6" stroke="white"/>
<path d="M549.00916,113.898445 L580.8386,137.91518 L554.2611,149.04787 z" fill="#29B6F6" stroke="white"/>
<path d="M554.2611,149.04787 L435.53543,164.59326 L549.00916,113.898445 z" fill="#29B6F6" stroke="white"/>
<path d="M493.53165,242.87592 L435.53543,164.59326 L554.2611,149.04787 z" fill="#29B6F6" stroke="white"/>
<path d="M493.53165,242.87592 L367.99374,263.14233 L435.53543,164.59326 z" fill="#29B6F6" stroke="white"/>
<path d="M321.7143,348.73587 L292.1166,239.62648 L344.5804,248.48036 z" fill="#29B6F6" stroke="white"/>
<path d="M208.11482,371.29752 L93.94989,320.46948 L91.106094,223.00264 z" fill="#29B6F6" stroke="white"/>
<path d="M124.33334,440.68286 L93.94989,320.46948 L208.11482,371.29752 z" fill="#29B6F6" stroke="white"/>
<path d="M57.522087,319.10425 L93.94989,320.46948 L124.33334,440.68286 z" fill="#29B6F6" stroke="white"/>
<path d="M57.522087,319.10425 L124.33334,440.68286 L114.97756,456.74292 z" fill="#29B6F6" stroke="white"/>
<path d="M57.522087,319.10425 L114.97756,456.74292 L75.89386,533.0702 z" fill="#29B6F6" stroke="white"/>
<path d="M75.89386,533.0702 L114.97756,456.74292 L156.8351,486.95526 z" fill="#29B6F6" stroke="white"/>
<path d="M156.8351,486.95526 L230.82112,560.2152 L75.89386,533.0702 z" fill="#29B6F6" stroke="white"/>
<path d="M230.82112,560.2152 L156.8351,486.95526 L242.4993,535.3748 z" fill="#29B6F6" stroke="white"/>
<path d="M242.4993,535.3748 L262.63647,564.72205 L230.82112,560.2152 z" fill="#29B6F6" stroke="white"/>
<path d="M262.63647,564.72205 L242.4993,535.3748 L293.09238,572.5254 z" fill="#29B6F6" stroke="white"/>
<path d="M293.09238,572.5254 L241.88455,586.6481 L262.63647,564.72205 z" fill="#29B6F6" stroke="white"/>
<path d="M293.09238,572.5254 L304.17255,579.05194 L241.88455,586.6481 z" fill="#29B6F6" stroke="white"/>
<path d="M327.18884,561.303 L304.17255,579.05194 L293.09238,572.5254 z" fill="#29B6F6" stroke="white"/>
<path d="M349.49188,583.83014 L304.17255,579.05194 L327.18884,561.303 z" fill="#29B6F6" stroke="white"/>
<path d="M304.17255,579.05194 L349.49188,583.83014 L352.50745,673.5921 z" fill="#29B6F6" stroke="white"/>
<path d="M352.50745,673.5921 L337.3118,695.5979 L304.17255,579.05194 z" fill="#29B6F6" stroke="white"/>
<path d="M357.18503,684.33 L337.3118,695.5979 L352.50745,673.5921 z" fill="#29B6F6" stroke="white"/>
<path d="M352.50745,673.5921 L421.3884,690.182 L357.18503,684.33 z" fill="#29B6F6" stroke="white"/>
<path d="M304.17255,579.05194 L337.3118,695.5979 L241.88455,586.6481 z" fill="#29B6F6" stroke="white"/>
<path d="M261.82056,748.2734 L241.88455,586.6481 L337.3118,695.5979 z" fill="#29B6F6" stroke="white"/>
<path d="M241.88455,586.6481 L261.82056,748.2734 L165.87218,721.23865 z" fill="#29B6F6" stroke="white"/>
<path d="M103.45203,713.37616 L241.88455,586.6481 L165.87218,721.23865 z" fill="#29B6F6" stroke="white"/>
<path d="M75.89386,533.0702 L241.88455,586.6481 L103.45203,713.37616 z" fill="#29B6F6" stroke="white"/>
<path d="M241.88455,586.6481 L75.89386,533.0702 L230.82112,560.2152 z" fill="#29B6F6" stroke="white"/>
<path d="M262.63647,564.72205 L241.88455,586.6481 L230.82112,560.2152 z" fill="#29B6F6" stroke="white"/>
<path d="M103.45203,713.37616 L165.87218,721.23865 L98.9779,770.682 z" fill="#29B6F6" stroke="white"/>
<path d="M70.61357,764.2437 L103.45203,713.37616 L98.9779,770.682 z" fill="#29B6F6" stroke="white"/>
<path d="M85.0409,794.64355 L70.61357,764.2437 L98.9779,770.682 z" fill="#29B6F6" stroke="white"/>
<path d="M102.50815,789.8425 L85.0409,794.64355 L98.9779,770.682 z" fill="#29B6F6" stroke="white"/>
<path d="M98.9779,770.682 L194.43138,776.052 L102.50815,789.8425 z" fill="#29B6F6" stroke="white"/>
<path d="M165.87218,721.23865 L194.43138,776.052 L98.9779,770.682 z" fill="#29B6F6" stroke="white"/>
<path d="M197.20935,765.5562 L194.43138,776.052 L165.87218,721.23865 z" fill="#29B6F6" stroke="white"/>
<path d="M194.43138,776.052 L197.20935,765.5562 L245.62502,771.85614 z" fill="#29B6F6" stroke="white"/>
<path d="M245.62502,771.85614 L197.20935,765.5562 L261.82056,748.2734 z" fill="#29B6F6" stroke="white"/>
<path d="M261.82056,748.2734 L197.20935,765.5562 L165.87218,721.23865 z" fill="#29B6F6" stroke="white"/>
<path d="M370.48038,485.4724 L349.49188,583.83014 L327.18884,561.303 z" fill="#29B6F6" stroke="white"/>
<path d="M327.18884,561.303 L295.90933,472.0447 L370.48038,485.4724 z" fill="#29B6F6" stroke="white"/>
<path d="M327.18884,561.303 L293.09238,572.5254 L295.90933,472.0447 z" fill="#29B6F6" stroke="white"/>
<path d="M293.09238,572.5254 L242.4993,535.3748 L295.90933,472.0447 z" fill="#29B6F6" stroke="white"/>
<path d="M295.90933,472.0447 L242.4993,535.3748 L156.8351,486.95526 z" fill="#29B6F6" stroke="white"/>
<path d="M295.90933,472.0447 L156.8351,486.95526 L208.11482,371.29752 z" fill="#29B6F6" stroke="white"/>
<path d="M208.11482,371.29752 L156.8351,486.95526 L129.8065,455.65723 z" fill="#29B6F6" stroke="white"/>
<path d="M208.11482,371.29752 L129.8065,455.65723 L124.33334,440.68286 z" fill="#29B6F6" stroke="white"/>
<path d="M114.97756,456.74292 L124.33334,440.68286 L129.8065,455.65723 z" fill="#29B6F6" stroke="white"/>
<path d="M156.8351,486.95526 L114.97756,456.74292 L129.8065,455.65723 z" fill="#29B6F6" stroke="white"/>
<path d="M400,600 L600,600 L522.401,694.4459 z" fill="#29B6F6" stroke="white"/>
<path d="M650.2172,661.56586 L522.401,694.4459 L600,600 z" fill="#29B6F6" stroke="white"/>
<path d="M600,600 L715.8972,570.95325 L650.2172,661.56586 z" fill="#29B6F6" stroke="white"/>
<path d="M600,600 L665.1531,526.0387 L715.8972,570.95325 z" fill="#29B6F6" stroke="white"/>
<path d="M600,400 L665.1531,526.0387 L600,600 z" fill="#29B6F6" stroke="white"/>
<path d="M715.8972,570.95325 L727.87524,613.5628 L650.2172,661.56586 z" fill="#29B6F6" stroke="white"/>
<path d="M772.24194,583.45416 L727.87524,613.5628 L715.8972,570.95325 z" fill="#29B6F6" stroke="white"/>
<path d="M786.4509,547.10547 L772.24194,583.45416 L715.8972,570.95325 z" fill="#29B6F6" stroke="white"/>
<path d="M740.86505,707.24054 L650.2172,661.56586 L727.87524,613.5628 z" fill="#29B6F6" stroke="white"/>
<path d="M91.106094,223.00264 L46.995235,208.00229 L30.229153,158.58142 z" fill="#29B6F6" stroke="white"/>
<path d="M120.22566,12.34228 L111.29153,48.883266 L-10,-10 z" fill="#29B6F6" stroke="white"/>
<path d="M119.134995,38.195156 L111.29153,48.883266 L120.22566,12.34228 z" fill="#29B6F6" stroke="white"/>
<path d="M151.16927,83.74925 L111.29153,48.883266 L119.134995,38.195156 z" fill="#29B6F6" stroke="white"/>
<path d="M151.16927,83.74925 L125.549,105.206604 L111.29153,48.883266 z" fill="#29B6F6" stroke="white"/>
<path d="M157.152,6.716231 L151.16927,83.74925 L119.134995,38.195156 z" fill="#29B6F6" stroke="white"/>
<path d="M157.152,6.716231 L119.134995,38.195156 L120.22566,12.34228 z" fill="#29B6F6" stroke="white"/>
<path d="M120.22566,12.34228 L-10,-10 L157.152,6.716231 z" fill="#29B6F6" stroke="white"/>
</svg>